<?xml version="1.0" encoding="UTF-8"?>
<svg version="1.1" xmlns="http://www.w3.org/2000/svg" width="275" height="183">
<path d="M0 0 C90.75 0 181.5 0 275 0 C275 60.39 275 120.78 275 183 C184.25 183 93.5 183 0 183 C0 122.61 0 62.22 0 0 Z " fill="#000000" transform="translate(0,0)"/>
<path d="M0 0 C5.300625 -0.2475 10.60125 -0.495 16.0625 -0.75 C18.55115601 -0.91387207 18.55115601 -0.91387207 21.09008789 -1.08105469 C25.31301738 -1.24083086 28.88714458 -1.1049299 33 0 C36.15270556 3.23553236 40 8.19173189 40 13 C32.41 13 24.82 13 17 13 C17 15.97 17 18.94 17 22 C23.93 22 30.86 22 38 22 C38 26.29 38 30.58 38 35 C31.07 35 24.14 35 17 35 C17 37.97 17 40.94 17 44 C26.24 44 35.48 44 45 44 C45 48.29 45 52.58 45 57 C30.15 57 15.3 57 0 57 C0 38.19 0 19.38 0 0 Z " fill="#FBFBFB" transform="translate(81,93)"/>
<path d="M0 0 C6.27 0 12.54 0 19 0 C21.97 5.61 24.94 11.22 28 17 C30.97 11.39 33.94 5.78 37 0 C43.27 0 49.54 0 56 0 C54.5104312 3.723922 53.0290116 6.89315026 51.06640625 10.34375 C50.49986328 11.34277344 49.93332031 12.34179688 49.34960938 13.37109375 C48.46499023 14.91990234 48.46499023 14.91990234 47.5625 16.5 C46.97662109 17.53253906 46.39074219 18.56507812 45.78710938 19.62890625 C41.19102865 27.71508686 41.19102865 27.71508686 39.34033203 30.4753418 C37.77837892 33.41744692 37.57692708 35.42292712 37.48828125 38.73828125 C37.45283203 39.80498047 37.41738281 40.87167969 37.38085938 41.97070312 C37.35830078 43.07349609 37.33574219 44.17628906 37.3125 45.3125 C37.27833984 46.43462891 37.24417969 47.55675781 37.20898438 48.71289062 C37.12671135 51.47491357 37.06167377 54.23744033 37 57 C31.06 57 25.12 57 19 57 C19.09023437 55.55753906 19.18046875 54.11507812 19.2734375 52.62890625 C19.82993384 33.16302556 12.31557327 20.13663666 1.55078125 4.4140625 C0 2 0 2 0 0 Z " fill="#FAFAFA" transform="translate(119,93)"/>
<path d="M0 0 C0 7.26 0 14.52 0 22 C-6.7499678 24.24998927 -6.7499678 24.24998927 -9.9546814 24.82774353 C-11.04303787 25.027304 -11.04303787 25.027304 -12.15338135 25.230896 C-12.92953796 25.36860413 -13.70569458 25.50631226 -14.50537109 25.64819336 C-15.75560562 25.87548882 -15.75560562 25.87548882 -17.03109741 26.1073761 C-19.77781085 26.60568512 -22.52560135 27.09776686 -25.2734375 27.58984375 C-27.19958604 27.9381228 -29.12566116 28.2868081 -31.05166626 28.63587952 C-36.12469535 29.55426689 -41.19864683 30.46745319 -46.27282715 31.37945557 C-52.38769681 32.47944874 -58.50148994 33.58540552 -64.61542702 34.69056797 C-69.38473101 35.55256645 -74.15418525 36.41369882 -78.92416382 37.2719574 C-79.80550806 37.43077172 -80.6868523 37.58958605 -81.59490395 37.75321293 C-83.30775344 38.06163025 -85.02075075 38.36922798 -86.7339077 38.67593288 C-90.73995393 39.3962675 -94.73923004 40.13878486 -98.73126221 40.93338013 C-99.47068369 41.07879777 -100.21010517 41.22421541 -100.97193336 41.37403965 C-102.95960504 41.76736499 -104.94552977 42.16948999 -106.93130493 42.57228088 C-110 43 -110 43 -113 42 C-45.01648703 16.36891978 -45.01648703 16.36891978 -19.875 6.9375 C-19.05338379 6.62908173 -18.23176758 6.32066345 -17.38525391 6.00289917 C-15.12946393 5.15625993 -12.8733891 4.31038534 -10.6171875 3.46484375 C-9.39628418 3.007146 -8.17538086 2.54944824 -6.91748047 2.07788086 C-1.29331823 0 -1.29331823 0 0 0 Z " fill="#F7E000" transform="translate(194,33)"/>
<path d="M0 0 C-0.33 1.65 -0.66 3.3 -1 5 C-3.60259124 5.53010201 -6.206557 6.04937795 -8.8125 6.5625 C-9.55048828 6.71396484 -10.28847656 6.86542969 -11.04882812 7.02148438 C-16.66015625 8.11328125 -16.66015625 8.11328125 -20 7 C-17.04380781 5.8278551 -14.08471211 4.66322524 -11.125 3.5 C-10.28324219 3.16613281 -9.44148438 2.83226563 -8.57421875 2.48828125 C-7.76855469 2.17246094 -6.96289062 1.85664062 -6.1328125 1.53125 C-5.38918457 1.23798828 -4.64555664 0.94472656 -3.87939453 0.64257812 C-2 0 -2 0 0 0 Z " fill="#D4C200" transform="translate(101,68)"/>
</svg>
