<?xml version="1.0" encoding="UTF-8"?>
<svg version="1.1" xmlns="http://www.w3.org/2000/svg" width="225" height="225">
<path d="M0 0 C74.25 0 148.5 0 225 0 C225 74.25 225 148.5 225 225 C150.75 225 76.5 225 0 225 C0 150.75 0 76.5 0 0 Z " fill="#4E54DE" transform="translate(0,0)"/>
<path d="M0 0 C0.99 0.33 1.98 0.66 3 1 C3 1.66 3 2.32 3 3 C3.87011719 2.98259766 3.87011719 2.98259766 4.7578125 2.96484375 C9.2998246 2.91237826 13.52713569 3.08248937 18 4 C16.625 5.5 16.625 5.5 15 7 C14.34 7 13.68 7 13 7 C10.42201142 11.98411126 9.25930309 16.36469784 10 22 C11.57451717 26.45073912 13.02942818 29.35295212 17 32 C21.6416775 32.60577825 25.75483798 32.59664013 30 30.5625 C30.66 30.046875 31.32 29.53125 32 29 C32.66 28.67 33.32 28.34 34 28 C33.67 30.31 33.34 32.62 33 35 C32.34 35 31.68 35 31 35 C31 34.34 31 33.68 31 33 C30.34 33 29.68 33 29 33 C29 33.66 29 34.32 29 35 C24.8882744 35.02465746 20.77657722 35.04283959 16.66479492 35.05493164 C15.26504772 35.0599708 13.8653058 35.06680216 12.46557617 35.07543945 C10.45754223 35.0875232 8.44947043 35.09269807 6.44140625 35.09765625 C5.23170166 35.10289307 4.02199707 35.10812988 2.77563477 35.11352539 C0 35 0 35 -1 34 C-1.14115161 31.32941149 -1.04247107 28.67567762 -1 26 C-3.31 26.66 -5.62 27.32 -8 28 C-8.33 30.31 -8.66 32.62 -9 35 C-14.28 35 -19.56 35 -25 35 C-25 30.71 -25 26.42 -25 22 C-24.34 22 -23.68 22 -23 22 C-22.505 17.545 -22.505 17.545 -22 13 C-22.66 13 -23.32 13 -24 13 C-24.33 13.66 -24.66 14.32 -25 15 C-24.67 11.04 -24.34 7.08 -24 3 C-19.45898438 2.65820312 -19.45898438 2.65820312 -14.91796875 2.31640625 C-11.94010095 2.09787539 -11.94010095 2.09787539 -9 1 C-9 4.3 -9 7.6 -9 11 C-6.36 11 -3.72 11 -1 11 C-1.01160156 10.28972656 -1.02320312 9.57945313 -1.03515625 8.84765625 C-1.04417969 7.92855469 -1.05320312 7.00945312 -1.0625 6.0625 C-1.07410156 5.14597656 -1.08570312 4.22945313 -1.09765625 3.28515625 C-1 1 -1 1 0 0 Z " fill="#6140BB" transform="translate(49,93)"/>
<path d="M0 0 C0.33 0 0.66 0 1 0 C2.35474495 7.28175409 3.36127237 15.91618289 1 23 C6.28 23 11.56 23 17 23 C17.33 17.72 17.66 12.44 18 7 C15.69 7 13.38 7 11 7 C10 4 10 4 10.9375 1.8125 C11.4634375 0.9153125 11.4634375 0.9153125 12 0 C12 1.98 12 3.96 12 6 C14.64 6 17.28 6 20 6 C20 13.59 20 21.18 20 29 C18.02 29 16.04 29 14 29 C14 29.66 14 30.32 14 31 C5.75 31 -2.5 31 -11 31 C-12.09898702 27.70303895 -11.87124444 26.59505097 -11.0625 23.3125 C-10.86785156 22.50425781 -10.67320313 21.69601563 -10.47265625 20.86328125 C-10.31667969 20.24839844 -10.16070312 19.63351563 -10 19 C-11.98 19 -13.96 19 -16 19 C-16.185625 19.639375 -16.37125 20.27875 -16.5625 20.9375 C-18 23 -18 23 -21.375 24 C-25 24 -25 24 -27.375 22.625 C-29.65109773 18.94822675 -30.22757879 15.30882512 -30 11 C-28.77117737 7.70723257 -28.04796564 7.03197709 -25 5 C-18.54716981 5.45283019 -18.54716981 5.45283019 -16 8 C-16 8.99 -16 9.98 -16 11 C-13.36 11 -10.72 11 -8 11 C-8 7.7 -8 4.4 -8 1 C-7.67 1 -7.34 1 -7 1 C-6.97494385 1.78238037 -6.9498877 2.56476074 -6.92407227 3.37084961 C-6.80850212 6.89324949 -6.68560051 10.4153556 -6.5625 13.9375 C-6.52318359 15.16919922 -6.48386719 16.40089844 -6.44335938 17.66992188 C-6.40146484 18.83974609 -6.35957031 20.00957031 -6.31640625 21.21484375 C-6.27974854 22.29886475 -6.24309082 23.38288574 -6.20532227 24.49975586 C-6.27635735 26.939263 -6.27635735 26.939263 -5 28 C-2.14122091 28.23701239 0.69883297 28.42219182 3.5625 28.5625 C4.36880859 28.60568359 5.17511719 28.64886719 6.00585938 28.69335938 C8.00368805 28.79975262 10.0018207 28.90040888 12 29 C12 27.35 12 25.7 12 24 C8.04 24 4.08 24 0 24 C0 16.08 0 8.16 0 0 Z " fill="#5445C5" transform="translate(94,97)"/>
<path d="M0 0 C1.98 0 3.96 0 6 0 C6 3.96 6 7.92 6 12 C9.96 12 13.92 12 18 12 C18 8.04 18 4.08 18 0 C19.98 0 21.96 0 24 0 C24 9.57 24 19.14 24 29 C22.02 29 20.04 29 18 29 C18 25.04 18 21.08 18 17 C14.04 17 10.08 17 6 17 C6 20.96 6 24.92 6 29 C4.02 29 2.04 29 0 29 C0 19.43 0 9.86 0 0 Z " fill="#FBF9F8" transform="translate(31,97)"/>
<path d="M0 0 C3.8026029 2.0050088 5.61790841 3.42686262 8 7 C8 7.99 8 8.98 8 10 C5.25 10.25 5.25 10.25 2 10 C0.64631404 8.68733482 -0.68799596 7.35432675 -2 6 C-5.16374283 5.6141777 -6.95713516 5.98571172 -10 7 C-10.85330338 12.83475015 -11.48351814 17.44860651 -9 23 C-7.54054712 22.91291331 -6.08234132 22.80473093 -4.625 22.6875 C-3.81289062 22.62949219 -3.00078125 22.57148437 -2.1640625 22.51171875 C0.37921338 22.17009472 0.37921338 22.17009472 2 19 C5.125 18.8125 5.125 18.8125 8 19 C6.07517084 25.66287016 6.07517084 25.66287016 3 28 C-1.34752939 29.44917646 -5.45679506 29.50883895 -10 29 C-14.7884398 26.45295755 -16.38924506 23.08659456 -18 18 C-18.70809375 13.61327285 -18.36705657 10.15463158 -16.3125 6.1875 C-11.90846406 0.11707208 -7.26300759 -1.17640264 0 0 Z " fill="#F1EEF3" transform="translate(76,97)"/>
<path d="M0 0 C1.65 0 3.3 0 5 0 C5 2.97 5 5.94 5 9 C5.99 8.34 6.98 7.68 8 7 C10.875 6.5625 10.875 6.5625 14 7 C16.64874213 8.98752329 18.69629705 10.55055916 19.40039062 13.91088867 C19.49154526 16.06542973 19.4375403 18.15988307 19.3125 20.3125 C19.28994141 21.05306641 19.26738281 21.79363281 19.24414062 22.55664062 C19.1855815 24.37197357 19.09590886 26.18625681 19 28 C17.02 28 15.04 28 13 28 C12.67 23.38 12.34 18.76 12 14 C11.01 13.67 10.02 13.34 9 13 C8.01 13.66 7.02 14.32 6 15 C5.41407366 18.11610554 5.41407366 18.11610554 5.3125 21.625 C5.24675781 22.81351563 5.18101562 24.00203125 5.11328125 25.2265625 C5.07589844 26.14179687 5.03851563 27.05703125 5 28 C3.35 28 1.7 28 0 28 C0 18.76 0 9.52 0 0 Z " fill="#EAF5F9" transform="translate(174,98)"/>
<path d="M0 0 C7.59 0 15.18 0 23 0 C23 1.98 23 3.96 23 6 C20.36 6 17.72 6 15 6 C15 13.59 15 21.18 15 29 C13.02 29 11.04 29 9 29 C9 21.41 9 13.82 9 6 C6.03 6 3.06 6 0 6 C0 4.02 0 2.04 0 0 Z " fill="#DAE3F4" transform="translate(106,97)"/>
<path d="M0 0 C1.8871875 0.061875 1.8871875 0.061875 3.8125 0.125 C3.8125 0.455 3.8125 0.785 3.8125 1.125 C1.8325 1.125 -0.1475 1.125 -2.1875 1.125 C-2.17964478 2.16841553 -2.17964478 2.16841553 -2.17163086 3.23291016 C-2.15075663 6.40526413 -2.13780668 9.57760361 -2.125 12.75 C-2.11662109 13.84441406 -2.10824219 14.93882813 -2.09960938 16.06640625 C-2.09477539 17.66162109 -2.09477539 17.66162109 -2.08984375 19.2890625 C-2.08198853 20.75013428 -2.08198853 20.75013428 -2.07397461 22.24072266 C-2.19335494 25.27375321 -2.62883276 28.14415268 -3.1875 31.125 C-1.8675 31.455 -0.5475 31.785 0.8125 32.125 C-3.1475 32.125 -7.1075 32.125 -11.1875 32.125 C-11.5175 31.465 -11.8475 30.805 -12.1875 30.125 C-11.40375 29.733125 -10.62 29.34125 -9.8125 28.9375 C-6.83593582 26.88225331 -6.19926437 25.52820742 -5.1875 22.125 C-7.1675 22.125 -9.1475 22.125 -11.1875 22.125 C-11.5175 23.115 -11.8475 24.105 -12.1875 25.125 C-14.5625 25.25 -14.5625 25.25 -17.1875 25.125 C-19.1875 23.125 -19.1875 23.125 -19.5 19.625 C-19.396875 18.47 -19.29375 17.315 -19.1875 16.125 C-16.1875 14.125 -16.1875 14.125 -14.4375 14.375 C-13.695 14.6225 -12.9525 14.87 -12.1875 15.125 C-10.95 15.475625 -9.7125 15.82625 -8.4375 16.1875 C-7.365 16.496875 -6.2925 16.80625 -5.1875 17.125 C-6.84225777 13.52346838 -8.27675078 11.8275523 -11.875 10.3125 C-13.5146875 9.7246875 -13.5146875 9.7246875 -15.1875 9.125 C-15.1875 8.795 -15.1875 8.465 -15.1875 8.125 C-12.5475 8.125 -9.9075 8.125 -7.1875 8.125 C-7.249375 7.17625 -7.31125 6.2275 -7.375 5.25 C-7.313125 4.21875 -7.25125 3.1875 -7.1875 2.125 C-4.09861478 0.06574319 -3.47814073 -0.1140374 0 0 Z " fill="#3162DD" transform="translate(175.1875,95.875)"/>
<path d="M0 0 C0.66 0 1.32 0 2 0 C2 3.3 2 6.6 2 10 C4.64 10 7.28 10 10 10 C10 11.32 10 12.64 10 14 C6.7 14 3.4 14 0 14 C-0.33 10.7 -0.66 7.4 -1 4 C-3.97 3.505 -3.97 3.505 -7 3 C-7 12.9 -7 22.8 -7 33 C-6.01 33.33 -5.02 33.66 -4 34 C-7.3 34 -10.6 34 -14 34 C-14 29.71 -14 25.42 -14 21 C-13.34 21 -12.68 21 -12 21 C-11.505 16.545 -11.505 16.545 -11 12 C-11.66 12 -12.32 12 -13 12 C-13.33 12.66 -13.66 13.32 -14 14 C-13.67 10.04 -13.34 6.08 -13 2 C-9.90755208 1.77213542 -6.81510417 1.54427083 -3.72265625 1.31640625 C-1.08890097 1.29581916 -1.08890097 1.29581916 0 0 Z " fill="#633ACF" transform="translate(38,94)"/>
<path d="M0 0 C0.66 1.32 1.32 2.64 2 4 C-0.04698414 6.04698414 -4.30411241 5.70045693 -7 6 C-7.33 6.99 -7.66 7.98 -8 9 C-5.03 9 -2.06 9 1 9 C1.33 8.01 1.66 7.02 2 6 C3.32 6.66 4.64 7.32 6 8 C6 9.32 6 10.64 6 12 C1.38 12 -3.24 12 -8 12 C-7.67 12.99 -7.34 13.98 -7 15 C-4.66705225 15.04241723 -2.33297433 15.04092937 0 15 C0.33 14.67 0.66 14.34 1 14 C2.66617115 13.95936168 4.33388095 13.957279 6 14 C5.65557106 16.49710982 5.15296001 17.82154665 3.5 19.75 C-0.29371095 21.64685547 -3.84920662 21.82127997 -8 21 C-11 18.5625 -11 18.5625 -13 16 C-13.33 15.67 -13.66 15.34 -14 15 C-14.34915655 9.76265181 -14.56101686 6.17498529 -11 2 C-7.31749523 -0.09007028 -4.18136745 -0.19448221 0 0 Z " fill="#E5ECF3" transform="translate(140,105)"/>
<path d="M0 0 C3.3494523 0.03017525 5.18523669 0.59948405 7.8125 2.6875 C10.3125 5.375 10.3125 5.375 10.3125 8.375 C7.4375 8.5 7.4375 8.5 4.3125 8.375 C3.6525 7.715 2.9925 7.055 2.3125 6.375 C-0.29030568 6.69541397 -0.29030568 6.69541397 -2.6875 7.375 C-2.72991723 9.70794775 -2.72842937 12.04202567 -2.6875 14.375 C-1.62104885 15.67133621 -1.62104885 15.67133621 0.875 15.4375 C1.679375 15.416875 2.48375 15.39625 3.3125 15.375 C3.6425 14.715 3.9725 14.055 4.3125 13.375 C6.2925 13.375 8.2725 13.375 10.3125 13.375 C9.9914295 16.34490216 9.78860823 17.92670933 7.57421875 20.01171875 C3.65833851 22.37206798 -0.26887548 22.10310937 -4.6875 21.375 C-7.8125 19.5 -7.8125 19.5 -9.6875 16.375 C-10.37129999 12.89901671 -10.42258534 9.84528662 -9.6875 6.375 C-7.25 3.3125 -7.25 3.3125 -4.6875 1.375 C-3.6875 0.375 -3.6875 0.375 0 0 Z " fill="#F2F8F4" transform="translate(159.6875,104.625)"/>
<path d="M0 0 C1.98 0 3.96 0 6 0 C6 7.59 6 15.18 6 23 C10.29 23 14.58 23 19 23 C19 24.65 19 26.3 19 28 C16.20807795 28.05380578 13.4171859 28.09357669 10.625 28.125 C9.8309375 28.14175781 9.036875 28.15851563 8.21875 28.17578125 C6.14507985 28.19335473 4.07116759 28.10335168 2 28 C0 26 0 26 -0.22705078 23.38623047 C-0.21657715 22.30744629 -0.20610352 21.22866211 -0.1953125 20.1171875 C-0.18886719 18.95058594 -0.18242188 17.78398438 -0.17578125 16.58203125 C-0.15902344 15.35871094 -0.14226562 14.13539062 -0.125 12.875 C-0.11597656 11.64394531 -0.10695313 10.41289063 -0.09765625 9.14453125 C-0.07402548 6.09616185 -0.04108054 3.04817618 0 0 Z " fill="#F6F7F6" transform="translate(87,98)"/>
<path d="M0 0 C2.64 0 5.28 0 8 0 C8.6875 1.6875 8.6875 1.6875 9 4 C8.525625 4.7425 8.05125 5.485 7.5625 6.25 C5.49742185 9.88453754 5.20180985 12.90096102 6 17 C7.96509909 19.7700997 7.96509909 19.7700997 10 22 C9.67 22.99 9.34 23.98 9 25 C4.05 25 -0.9 25 -6 25 C-6 24.67 -6 24.34 -6 24 C-4.02 24 -2.04 24 0 24 C0 16.08 0 8.16 0 0 Z " fill="#4754C8" transform="translate(121,103)"/>
<path d="M0 0 C3.4375 0.875 3.4375 0.875 4.9375 2.8125 C5.4375 4.875 5.4375 4.875 4.4375 6.875 C5.0975 7.205 5.7575 7.535 6.4375 7.875 C5.014375 7.99875 5.014375 7.99875 3.5625 8.125 C0.33288209 8.52574923 0.33288209 8.52574923 -0.9375 10.9375 C-1.246875 11.8965625 -1.246875 11.8965625 -1.5625 12.875 C-1.8925 12.215 -2.2225 11.555 -2.5625 10.875 C-3.5525 10.875 -4.5425 10.875 -5.5625 10.875 C-5.53127057 12.84256452 -5.53127057 12.84256452 -4.5625 14.875 C-1.56634054 16.1795656 -1.56634054 16.1795656 1.4375 16.875 C1.4375 15.555 1.4375 14.235 1.4375 12.875 C4.7375 12.875 8.0375 12.875 11.4375 12.875 C11.4375 13.205 11.4375 13.535 11.4375 13.875 C9.4575 13.875 7.4775 13.875 5.4375 13.875 C5.1590625 14.8340625 5.1590625 14.8340625 4.875 15.8125 C3.4375 17.875 3.4375 17.875 0.0625 18.875 C-3.5625 18.875 -3.5625 18.875 -5.9375 17.5 C-8.21359773 13.82322675 -8.79007879 10.18382512 -8.5625 5.875 C-6.89103817 1.39613141 -4.93093626 -0.17301531 0 0 Z " fill="#5A43DD" transform="translate(72.5625,102.125)"/>
<path d="M0 0 C-0.375 1.9375 -0.375 1.9375 -1 4 C-1.99 4.495 -1.99 4.495 -3 5 C0.86763446 6.87543354 0.86763446 6.87543354 5 6 C5 6.66 5 7.32 5 8 C6.32 8 7.64 8 9 8 C9 8.66 9 9.32 9 10 C8.34 10 7.68 10 7 10 C7 16.6 7 23.2 7 30 C6.67 30 6.34 30 6 30 C5.97421875 28.89140625 5.9484375 27.7828125 5.921875 26.640625 C5.86558344 25.17704453 5.80823633 23.71350438 5.75 22.25 C5.73582031 21.52039063 5.72164062 20.79078125 5.70703125 20.0390625 C5.54671754 16.51216097 5.27435598 14.36908099 3.14453125 11.50390625 C0.27402986 9.49089526 -1.56316805 9.63437958 -5 10 C-5.99 10.33 -6.98 10.66 -8 11 C-8 8.03 -8 5.06 -8 2 C-9.65 2 -11.3 2 -13 2 C-13 11.24 -13 20.48 -13 30 C-13.33 30 -13.66 30 -14 30 C-14 20.43 -14 10.86 -14 1 C-9.07523087 0.29646155 -4.89514963 -0.09990101 0 0 Z " fill="#6595DE" transform="translate(187,96)"/>
<path d="M0 0 C0 7.92 0 15.84 0 24 C-3.96 24.495 -3.96 24.495 -8 25 C-8.33 24.34 -8.66 23.68 -9 23 C-8.34 22.67 -7.68 22.34 -7 22 C-6.98541748 21.40461426 -6.97083496 20.80922852 -6.95581055 20.19580078 C-6.88145656 17.50486949 -6.78475813 14.81519667 -6.6875 12.125 C-6.66494141 11.18785156 -6.64238281 10.25070313 -6.61914062 9.28515625 C-6.5659668 7.94130859 -6.5659668 7.94130859 -6.51171875 6.5703125 C-6.48553467 5.74289551 -6.45935059 4.91547852 -6.43237305 4.06298828 C-5.65860543 0.37109876 -3.4484512 0 0 0 Z " fill="#256AEF" transform="translate(200,104)"/>
<path d="M0 0 C0.33 0.99 0.66 1.98 1 3 C1.66 3 2.32 3 3 3 C3.33 2.34 3.66 1.68 4 1 C4.33 1.66 4.66 2.32 5 3 C4.67 3.99 4.34 4.98 4 6 C4.99 5.67 5.98 5.34 7 5 C8.9375 5.26953125 8.9375 5.26953125 11 5.8125 C11.680625 5.98394531 12.36125 6.15539062 13.0625 6.33203125 C15 7 15 7 18 9 C18.6875 12.125 18.6875 12.125 19 15 C19.66 14.67 20.32 14.34 21 14 C21 16.31 21 18.62 21 21 C20.67 19.68 20.34 18.36 20 17 C19.34 17 18.68 17 18 17 C17.67 17.66 17.34 18.32 17 19 C17 17.68 17 16.36 17 15 C15.68 14.67 14.36 14.34 13 14 C12.67 14.66 12.34 15.32 12 16 C9.03 16 6.06 16 3 16 C3.33 14.68 3.66 13.36 4 12 C6.64 11.67 9.28 11.34 12 11 C11.67 10.01 11.34 9.02 11 8 C7.7 8.33 4.4 8.66 1 9 C-0.4783226 6.04335481 -0.06032783 3.25770263 0 0 Z " fill="#4B67D9" transform="translate(129,98)"/>
<path d="M0 0 C0.33 0 0.66 0 1 0 C1 9.24 1 18.48 1 28 C1.99 28.33 2.98 28.66 4 29 C0.7 29 -2.6 29 -6 29 C-6 24.71 -6 20.42 -6 16 C-5.34 16 -4.68 16 -4 16 C-3.67 12.37 -3.34 8.74 -3 5 C-2.67 5 -2.34 5 -2 5 C-1.67 8.96 -1.34 12.92 -1 17 C-0.67 11.39 -0.34 5.78 0 0 Z " fill="#6430C8" transform="translate(30,99)"/>
<path d="M0 0 C1.65 0 3.3 0 5 0 C5 7.59 5 15.18 5 23 C3.35 23 1.7 23 0 23 C0 15.41 0 7.82 0 0 Z " fill="#FBFCFA" transform="translate(115,103)"/>
<path d="M0 0 C0.33 0 0.66 0 1 0 C2.35474495 7.28175409 3.36127237 15.91618289 1 23 C6.28 23 11.56 23 17 23 C17.33 17.72 17.66 12.44 18 7 C15.69 7 13.38 7 11 7 C10 4 10 4 10.9375 1.8125 C11.288125 1.214375 11.63875 0.61625 12 0 C12 1.98 12 3.96 12 6 C14.64 6 17.28 6 20 6 C20 12.27 20 18.54 20 25 C18.35 25.33 16.7 25.66 15 26 C14.34 26.66 13.68 27.32 13 28 C13 26.68 13 25.36 13 24 C8.71 24 4.42 24 0 24 C0 16.08 0 8.16 0 0 Z " fill="#494AC4" transform="translate(94,97)"/>
<path d="M0 0 C1.32 0 2.64 0 4 0 C4.04241723 2.33294775 4.04092937 4.66702567 4 7 C3 8 3 8 0.71484375 8.09765625 C-0.65994141 8.08025391 -0.65994141 8.08025391 -2.0625 8.0625 C-2.98160156 8.05347656 -3.90070313 8.04445313 -4.84765625 8.03515625 C-5.55792969 8.02355469 -6.26820313 8.01195313 -7 8 C-7 8.99 -7 9.98 -7 11 C-6.484375 10.649375 -5.96875 10.29875 -5.4375 9.9375 C-2.05993333 8.6384359 0.50468057 9.32782319 4 10 C3.67 12.31 3.34 14.62 3 17 C2.01 17 1.02 17 0 17 C0.99 15.02 1.98 13.04 3 11 C1.02 11 -0.96 11 -3 11 C-3.33 11.99 -3.66 12.98 -4 14 C-6.375 14.125 -6.375 14.125 -9 14 C-11 12 -11 12 -11.3125 8.5 C-11.209375 7.345 -11.10625 6.19 -11 5 C-8 3 -8 3 -6.25 3.25 C-5.5075 3.4975 -4.765 3.745 -4 4 C-2.7625 4.350625 -1.525 4.70125 -0.25 5.0625 C0.8225 5.371875 1.895 5.68125 3 6 C1.515 3.03 1.515 3.03 0 0 Z " fill="#3A63D4" transform="translate(167,107)"/>
<path d="M0 0 C0.99776574 3.61999306 1.32525335 7.14628166 1.62109375 10.87890625 C1.9064753 13.29276146 1.9064753 13.29276146 4 16 C4.66 15.67 5.32 15.34 6 15 C7.99960012 14.960008 10.00047242 14.95653201 12 15 C12 14.34 12 13.68 12 13 C12.99 13 13.98 13 15 13 C15.33 13.99 15.66 14.98 16 16 C12.15050406 19.34274936 9.39027901 19.58939772 4.41796875 19.3984375 C2 19 2 19 -1.125 17.125 C-3.70257778 12.82903704 -3.95686113 8.90391327 -3 4 C-1.46875 1.69140625 -1.46875 1.69140625 0 0 Z " fill="#EEF4F6" transform="translate(153,107)"/>
<path d="M0 0 C1.32 0.66 2.64 1.32 4 2 C4 7.28 4 12.56 4 18 C1.69 18 -0.62 18 -3 18 C-2.67 12.39 -2.34 6.78 -2 1 C-1.34 0.67 -0.68 0.34 0 0 Z " fill="#2862DF" transform="translate(183,110)"/>
<path d="M0 0 C1.98 0 3.96 0 6 0 C6 3.96 6 7.92 6 12 C9.96 12 13.92 12 18 12 C18 12.33 18 12.66 18 13 C14.7 13 11.4 13 8 13 C8 13.99 8 14.98 8 16 C7.34 16 6.68 16 6 16 C5.34 15.01 4.68 14.02 4 13 C3.34 13 2.68 13 2 13 C1.67 18.28 1.34 23.56 1 29 C0.67 29 0.34 29 0 29 C0 19.43 0 9.86 0 0 Z " fill="#F1E9FA" transform="translate(31,97)"/>
<path d="M0 0 C2.64 0 5.28 0 8 0 C8 0.33 8 0.66 8 1 C5.69 1 3.38 1 1 1 C1 3.64 1 6.28 1 9 C1.66 9 2.32 9 3 9 C3 13.29 3 17.58 3 22 C3.66 22 4.32 22 5 22 C5.33 21.34 5.66 20.68 6 20 C6 20.66 6 21.32 6 22 C6.66 22 7.32 22 8 22 C8 22.66 8 23.32 8 24 C4.85069107 25.04976964 2.61185544 25.10131595 -0.6875 25.0625 C-1.68136719 25.05347656 -2.67523438 25.04445312 -3.69921875 25.03515625 C-4.83810547 25.01775391 -4.83810547 25.01775391 -6 25 C-6 24.67 -6 24.34 -6 24 C-4.02 24 -2.04 24 0 24 C0 16.08 0 8.16 0 0 Z " fill="#414BC4" transform="translate(121,103)"/>
<path d="M0 0 C0.99 0.33 1.98 0.66 3 1 C3 1.66 3 2.32 3 3 C4.65 3 6.3 3 8 3 C7.67 12.9 7.34 22.8 7 33 C6.67 33 6.34 33 6 33 C6 23.43 6 13.86 6 4 C4.02 4 2.04 4 0 4 C0 7.96 0 11.92 0 16 C-3.96 16 -7.92 16 -12 16 C-12 12.37 -12 8.74 -12 5 C-11.67 5 -11.34 5 -11 5 C-11 8.3 -11 11.6 -11 15 C-7.7 15 -4.4 15 -1 15 C-1.01160156 14.00097656 -1.02320313 13.00195312 -1.03515625 11.97265625 C-1.04417969 10.68230469 -1.05320312 9.39195313 -1.0625 8.0625 C-1.07410156 6.77472656 -1.08570313 5.48695312 -1.09765625 4.16015625 C-1 1 -1 1 0 0 Z " fill="#7863C1" transform="translate(49,93)"/>
<path d="M0 0 C0.66 0 1.32 0 2 0 C2.433125 1.0725 2.86625 2.145 3.3125 3.25 C4.55321513 6.16272646 5.95070379 8.56036166 8 11 C6.68 11 5.36 11 4 11 C2 8 2 8 2 5 C1.34 5 0.68 5 0 5 C0 5.99 0 6.98 0 8 C-0.66 7.67 -1.32 7.34 -2 7 C-1.67 6.01 -1.34 5.02 -1 4 C-2.2684375 4.495 -2.2684375 4.495 -3.5625 5 C-7.20989216 6.06105954 -10.22274664 6.15109013 -14 6 C-14.33 4.68 -14.66 3.36 -15 2 C-10.05 2 -5.1 2 0 2 C0 1.34 0 0.68 0 0 Z " fill="#4D5EB5" transform="translate(147,115)"/>
<path d="M0 0 C0.66 0 1.32 0 2 0 C2 1.32 2 2.64 2 4 C4.97 4 7.94 4 11 4 C11.33 3.01 11.66 2.02 12 1 C13.32 1.66 14.64 2.32 16 3 C16 4.32 16 5.64 16 7 C11.05 7 6.1 7 1 7 C0.67 8.32 0.34 9.64 0 11 C0 10.01 0 9.02 0 8 C-0.66 7.67 -1.32 7.34 -2 7 C-1.34 4.69 -0.68 2.38 0 0 Z " fill="#F7FAF5" transform="translate(130,110)"/>
<path d="M0 0 C0.66 0 1.32 0 2 0 C2 0.66 2 1.32 2 2 C2.66 2 3.32 2 4 2 C4 2.66 4 3.32 4 4 C3.34 4 2.68 4 2 4 C1.67 6.64 1.34 9.28 1 12 C4.465 13.485 4.465 13.485 8 15 C8 13.68 8 12.36 8 11 C11.3 11 14.6 11 18 11 C18 11.33 18 11.66 18 12 C16.02 12 14.04 12 12 12 C11.7215625 12.9590625 11.7215625 12.9590625 11.4375 13.9375 C10 16 10 16 6.625 17 C3 17 3 17 0.625 15.625 C-1.65109773 11.94822675 -2.22757879 8.30882512 -2 4 C-1.0078125 1.71875 -1.0078125 1.71875 0 0 Z " fill="#5F4ABB" transform="translate(66,104)"/>
<path d="M0 0 C0.99 0 1.98 0 3 0 C3 0.66 3 1.32 3 2 C4.65 1.67 6.3 1.34 8 1 C12 5.625 12 5.625 12 9 C9.25 9.25 9.25 9.25 6 9 C4.62437146 7.71034824 3.29233607 6.37310707 2 5 C-1.13350717 3.73215876 -1.13350717 3.73215876 -4 3 C-2.68 2.67 -1.36 2.34 0 2 C0 1.34 0 0.68 0 0 Z " fill="#EEEEF5" transform="translate(72,98)"/>
<path d="M0 0 C1.98 0 3.96 0 6 0 C6.09038099 5.15171623 5.84681133 9.91913204 5 15 C4.34 15 3.68 15 3 15 C2.67 13.35 2.34 11.7 2 10 C1.34 10.66 0.68 11.32 0 12 C0 8.04 0 4.08 0 0 Z " fill="#F3EFF6" transform="translate(49,97)"/>
<path d="M0 0 C3.96 0 7.92 0 12 0 C12 1.65 12 3.3 12 5 C7.05 5 2.1 5 -3 5 C-2.01 4.67 -1.02 4.34 0 4 C0 2.68 0 1.36 0 0 Z " fill="#FBFCF9" transform="translate(94,121)"/>
<path d="M0 0 C1.65 0 3.3 0 5 0 C4.65557106 2.49710982 4.15296001 3.82154665 2.5 5.75 C-1.25557239 7.62778619 -4.87646606 7.23789619 -9 7 C-9.33 6.01 -9.66 5.02 -10 4 C-7.04335481 2.5216774 -4.25770263 2.93967217 -1 3 C-0.67 2.01 -0.34 1.02 0 0 Z " fill="#F6F9F6" transform="translate(141,119)"/>
<path d="M0 0 C3.3 0.33 6.6 0.66 10 1 C8.515 2.485 8.515 2.485 7 4 C6.34 4 5.68 4 5 4 C4.71125 4.5775 4.4225 5.155 4.125 5.75 C3.08333333 7.83333333 2.04166667 9.91666667 1 12 C-1.44576827 8.33134759 -1.23607254 6.32799657 -1 2 C-0.67 1.34 -0.34 0.68 0 0 Z " fill="#5B3FCD" transform="translate(57,96)"/>
<path d="M0 0 C4.62 0 9.24 0 14 0 C12.42881935 4.71354196 9.06181386 7.29212409 5 10 C4.87625 8.3603125 4.87625 8.3603125 4.75 6.6875 C4.33564215 2.55968595 4.33564215 2.55968595 0 0 Z " fill="#3A65DA" transform="translate(142,104)"/>
<path d="M0 0 C0.33 0 0.66 0 1 0 C1 9.24 1 18.48 1 28 C1.99 28.33 2.98 28.66 4 29 C0.7 29 -2.6 29 -6 29 C-4 25 -4 25 -2 22 C-2 22.66 -2 23.32 -2 24 C-1.34 24 -0.68 24 0 24 C0 16.08 0 8.16 0 0 Z " fill="#5D30B4" transform="translate(30,99)"/>
<path d="M0 0 C0.5775 0.165 1.155 0.33 1.75 0.5 C4.26664369 1.14462031 4.26664369 1.14462031 8 1 C8 2.32 8 3.64 8 5 C6.02 5 4.04 5 2 5 C2 5.66 2 6.32 2 7 C0.08364783 7.05423638 -1.83314925 7.09289963 -3.75 7.125 C-5.35101563 7.15980469 -5.35101563 7.15980469 -6.984375 7.1953125 C-10 7 -10 7 -14 5 C-9.38 5 -4.76 5 0 5 C0 3.35 0 1.7 0 0 Z " fill="#5751CB" transform="translate(106,121)"/>
<path d="M0 0 C1.37562854 1.28965176 2.70766393 2.62689293 4 4 C4 4.66 4 5.32 4 6 C2.68 5.67 1.36 5.34 0 5 C-0.33 5.66 -0.66 6.32 -1 7 C-3.97 7 -6.94 7 -10 7 C-9.67 5.68 -9.34 4.36 -9 3 C-5.92382812 2.70703125 -5.92382812 2.70703125 -2.84765625 2.4140625 C-2.23792969 2.27742188 -1.62820312 2.14078125 -1 2 C-0.67 1.34 -0.34 0.68 0 0 Z " fill="#D3DCEF" transform="translate(142,107)"/>
<path d="M0 0 C0.90105469 0.00902344 1.80210938 0.01804687 2.73046875 0.02734375 C3.41753906 0.03894531 4.10460937 0.05054687 4.8125 0.0625 C4.8125 1.7125 4.8125 3.3625 4.8125 5.0625 C2.1725 5.0625 -0.4675 5.0625 -3.1875 5.0625 C-3.1875 4.7325 -3.1875 4.4025 -3.1875 4.0625 C-6.1575 3.5675 -6.1575 3.5675 -9.1875 3.0625 C-7.31499103 -0.68251794 -3.72136574 -0.04832943 0 0 Z " fill="#F3F8F8" transform="translate(124.1875,97.9375)"/>
<path d="M0 0 C3 3.75 3 3.75 3 6 C3.99 6.33 4.98 6.66 6 7 C5.34 8.32 4.68 9.64 4 11 C1 11 1 11 -1.6875 8.5 C-2.450625 7.675 -3.21375 6.85 -4 6 C-3.67 5.01 -3.34 4.02 -3 3 C-2.34 3.33 -1.68 3.66 -1 4 C-0.67 2.68 -0.34 1.36 0 0 Z " fill="#E9E4F0" transform="translate(64,114)"/>
<path d="M0 0 C1.32 0.66 2.64 1.32 4 2 C4 2.66 4 3.32 4 4 C3.01 4.33 2.02 4.66 1 5 C1 6.65 1 8.3 1 10 C-4.75 9.25 -4.75 9.25 -7 7 C-6.625 4.875 -6.625 4.875 -6 3 C-4.35 3.33 -2.7 3.66 -1 4 C-0.67 2.68 -0.34 1.36 0 0 Z " fill="#5539D0" transform="translate(73,109)"/>
<path d="M0 0 C0.99 0.33 1.98 0.66 3 1 C3 1.66 3 2.32 3 3 C3.99 3 4.98 3 6 3 C6 2.34 6 1.68 6 1 C6.66 1 7.32 1 8 1 C8 3.97 8 6.94 8 10 C7.01 10.33 6.02 10.66 5 11 C5 9.68 5 8.36 5 7 C4.01 7.33 3.02 7.66 2 8 C1.67 7.01 1.34 6.02 1 5 C0.34 4.67 -0.32 4.34 -1 4 C-0.67 2.68 -0.34 1.36 0 0 Z " fill="#3C61E8" transform="translate(128,93)"/>
<path d="M0 0 C2.31 0 4.62 0 7 0 C7.33 0.99 7.66 1.98 8 3 C7.03320312 3.32097656 7.03320312 3.32097656 6.046875 3.6484375 C3.72160885 4.8473523 3.72160885 4.8473523 3.390625 7.6015625 C3.34421875 8.59929687 3.2978125 9.59703125 3.25 10.625 C3.19328125 11.62789062 3.1365625 12.63078125 3.078125 13.6640625 C3.05234375 14.43492188 3.0265625 15.20578125 3 16 C2.67 16 2.34 16 2 16 C2 13.36 2 10.72 2 8 C1.34 8 0.68 8 0 8 C0 5.36 0 2.72 0 0 Z " fill="#3F56E3" transform="translate(122,104)"/>
<path d="M0 0 C0.33 0 0.66 0 1 0 C1.66 2.31 2.32 4.62 3 7 C4.65 7 6.3 7 8 7 C8.33 6.34 8.66 5.68 9 5 C10.98 5 12.96 5 15 5 C14.67 6.32 14.34 7.64 14 9 C13.67 8.34 13.34 7.68 13 7 C12.01 7 11.02 7 10 7 C10 7.66 10 8.32 10 9 C7.03 9.66 4.06 10.32 1 11 C-0.99512373 7.00975253 -1.28727578 5.30913667 -1 1 C-0.67 0.67 -0.34 0.34 0 0 Z " fill="#DEE7F7" transform="translate(155,113)"/>
<path d="M0 0 C7.76785714 -0.66964286 7.76785714 -0.66964286 11.5 2.3125 C14 5 14 5 14 8 C12.02 8 10.04 8 8 8 C7.34 6.68 6.68 5.36 6 4 C6.66 3.67 7.32 3.34 8 3 C5.36 2.34 2.72 1.68 0 1 C0 0.67 0 0.34 0 0 Z " fill="#D6E8F7" transform="translate(156,105)"/>
<path d="M0 0 C0.33 0 0.66 0 1 0 C1 4.95 1 9.9 1 15 C-2.83619425 15.95904856 -4.32431536 15.91892116 -8 15 C-8 13.02 -8 11.04 -8 9 C-7.67 9 -7.34 9 -7 9 C-7 10.65 -7 12.3 -7 14 C-5.02 14 -3.04 14 -1 14 C-1.01160156 13.07316406 -1.02320313 12.14632812 -1.03515625 11.19140625 C-1.04417969 9.99386719 -1.05320313 8.79632813 -1.0625 7.5625 C-1.07410156 6.36753906 -1.08570313 5.17257813 -1.09765625 3.94140625 C-1 1 -1 1 0 0 Z " fill="#4A75CE" transform="translate(180,112)"/>
<path d="M0 0 C0.33 0 0.66 0 1 0 C1.33 2.31 1.66 4.62 2 7 C4.64 7.66 7.28 8.32 10 9 C10 9.33 10 9.66 10 10 C6.04 10 2.08 10 -2 10 C-3.26066301 6.21801096 -2.42292658 4.63636792 -1 1 C-0.67 0.67 -0.34 0.34 0 0 Z " fill="#4F3BC6" transform="translate(85,118)"/>
<path d="M0 0 C1.98 0 3.96 0 6 0 C4.375 5.75 4.375 5.75 1 8 C0.34 7.01 -0.32 6.02 -1 5 C-1.99 5.495 -1.99 5.495 -3 6 C-3.66 5.34 -4.32 4.68 -5 4 C-4.360625 3.71125 -3.72125 3.4225 -3.0625 3.125 C-0.84793921 2.17176549 -0.84793921 2.17176549 0 0 Z " fill="#ECEBF4" transform="translate(78,116)"/>
<path d="M0 0 C0.66 0 1.32 0 2 0 C2 4.95 2 9.9 2 15 C1.01 15 0.02 15 -1 15 C-1.02693575 12.87506859 -1.04636628 10.75004088 -1.0625 8.625 C-1.07410156 7.44164063 -1.08570313 6.25828125 -1.09765625 5.0390625 C-1 2 -1 2 0 0 Z " fill="#FBFCF8" transform="translate(176,110)"/>
<path d="M0 0 C0.33 0.66 0.66 1.32 1 2 C2.32 2 3.64 2 5 2 C5 2.66 5 3.32 5 4 C4.34 4 3.68 4 3 4 C3 10.6 3 17.2 3 24 C2.67 24 2.34 24 2 24 C1.93941406 22.86820313 1.87882813 21.73640625 1.81640625 20.5703125 C1.73200083 19.08852855 1.64735283 17.6067584 1.5625 16.125 C1.50352539 15.00544922 1.50352539 15.00544922 1.44335938 13.86328125 C1.28426376 9.80013136 1.28426376 9.80013136 0 6 C-0.039992 4.00039988 -0.04346799 1.99952758 0 0 Z " fill="#4781DF" transform="translate(191,102)"/>
<path d="M0 0 C3.1875 0.3125 3.1875 0.3125 5.5625 2.3125 C6.09875 2.9725 6.635 3.6325 7.1875 4.3125 C4.8775 4.9725 2.5675 5.6325 0.1875 6.3125 C-0.245625 5.3534375 -0.245625 5.3534375 -0.6875 4.375 C-1.64073451 2.16043921 -1.64073451 2.16043921 -3.8125 1.3125 C-2.8125 0.3125 -2.8125 0.3125 0 0 Z " fill="#DEECF2" transform="translate(184.8125,104.6875)"/>
<path d="M0 0 C2.97 0.495 2.97 0.495 6 1 C6.66 3.31 7.32 5.62 8 8 C8.66 7.67 9.32 7.34 10 7 C10 9.31 10 11.62 10 14 C9.67 12.68 9.34 11.36 9 10 C8.34 10 7.68 10 7 10 C6.67 10.66 6.34 11.32 6 12 C5.62875 10.14375 5.62875 10.14375 5.25 8.25 C4.3289242 4.48560327 3.08652634 2.46922107 0 0 Z " fill="#5476CE" transform="translate(140,105)"/>
<path d="M0 0 C1.8871875 0.061875 1.8871875 0.061875 3.8125 0.125 C3.8125 0.455 3.8125 0.785 3.8125 1.125 C1.8325 1.455 -0.1475 1.785 -2.1875 2.125 C-2.5175 4.435 -2.8475 6.745 -3.1875 9.125 C-4.5075 8.795 -5.8275 8.465 -7.1875 8.125 C-7.375 5.25 -7.375 5.25 -7.1875 2.125 C-4.09861478 0.06574319 -3.47814073 -0.1140374 0 0 Z " fill="#2D70E7" transform="translate(175.1875,95.875)"/>
<path d="M0 0 C1.299375 0.185625 2.59875 0.37125 3.9375 0.5625 C4.948125 0.706875 5.95875 0.85125 7 1 C7 1.33 7 1.66 7 2 C0.07 2 -6.86 2 -14 2 C-14 1.67 -14 1.34 -14 1 C-8.7913324 -0.80708876 -5.52035445 -1.08435534 0 0 Z " fill="#4058D1" transform="translate(120,95)"/>
<path d="M0 0 C0.66 0 1.32 0 2 0 C1.67 2.31 1.34 4.62 1 7 C0.67 6.34 0.34 5.68 0 5 C-5.57830016 4.87530901 -5.57830016 4.87530901 -11 6 C-11 5.01 -11 4.02 -11 3 C-10.28972656 2.95101562 -9.57945312 2.90203125 -8.84765625 2.8515625 C-7.46900391 2.73941406 -7.46900391 2.73941406 -6.0625 2.625 C-5.14597656 2.55539063 -4.22945312 2.48578125 -3.28515625 2.4140625 C-2.15400391 2.20910156 -2.15400391 2.20910156 -1 2 C-0.67 1.34 -0.34 0.68 0 0 Z " fill="#2D61F0" transform="translate(171,112)"/>
<path d="M0 0 C0.66 0 1.32 0 2 0 C2.433125 1.0725 2.86625 2.145 3.3125 3.25 C4.55321513 6.16272646 5.95070379 8.56036166 8 11 C6.68 11 5.36 11 4 11 C2 8 2 8 2 5 C1.34 5 0.68 5 0 5 C0 5.99 0 6.98 0 8 C-0.66 7.67 -1.32 7.34 -2 7 C-1.34 4.69 -0.68 2.38 0 0 Z " fill="#4762CF" transform="translate(147,115)"/>
<path d="M0 0 C0.66 0 1.32 0 2 0 C3.01866229 1.65532623 4.01810813 3.32260138 5 5 C5.66 5.33 6.32 5.66 7 6 C7 6.66 7 7.32 7 8 C5.35 7.67 3.7 7.34 2 7 C2 6.34 2 5.68 2 5 C1.34 5 0.68 5 0 5 C-0.33 5.66 -0.66 6.32 -1 7 C-1.33 5.68 -1.66 4.36 -2 3 C-1.34 3 -0.68 3 0 3 C0 2.01 0 1.02 0 0 Z " fill="#3555E4" transform="translate(147,120)"/>
<path d="M0 0 C0.66 0 1.32 0 2 0 C3.88391785 3.26545761 4.49287967 6.28111761 5 10 C3.35 10 1.7 10 0 10 C0 6.7 0 3.4 0 0 Z " fill="#2366ED" transform="translate(181,112)"/>
<path d="M0 0 C3.375 0.25 3.375 0.25 7 1 C8.4375 3.0625 8.4375 3.0625 9 5 C8.34 5.66 7.68 6.32 7 7 C6.01 6.67 5.02 6.34 4 6 C3.67 4.35 3.34 2.7 3 1 C2.01 0.67 1.02 0.34 0 0 Z " fill="#685BCD" transform="translate(69,102)"/>
<path d="M0 0 C2.31 0 4.62 0 7 0 C7.33 2.64 7.66 5.28 8 8 C7.01 8.66 6.02 9.32 5 10 C4.87625 8.3603125 4.87625 8.3603125 4.75 6.6875 C4.36310791 2.96723336 4.36310791 2.96723336 1.9375 1.0625 C1.298125 0.711875 0.65875 0.36125 0 0 Z " fill="#3461E9" transform="translate(142,104)"/>
<path d="M0 0 C-1.375 1.5 -1.375 1.5 -3 3 C-3.66 3 -4.32 3 -5 3 C-5.33 3.99 -5.66 4.98 -6 6 C-7.32 5.34 -8.64 4.68 -10 4 C-7.75282684 -0.49434631 -4.47478037 -0.19887913 0 0 Z " fill="#644DD1" transform="translate(67,97)"/>
<path d="M0 0 C0.99 0.33 1.98 0.66 3 1 C3 4.3 3 7.6 3 11 C1 10 1 10 0 9 C-0.04092937 6.66702567 -0.04241723 4.33294775 0 2 C-0.66 1.67 -1.32 1.34 -2 1 C-1.34 0.67 -0.68 0.34 0 0 Z " fill="#356BE4" transform="translate(183,110)"/>
<path d="M0 0 C2.97 0 5.94 0 9 0 C9 0.99 9 1.98 9 3 C6.03 3 3.06 3 0 3 C0 2.01 0 1.02 0 0 Z " fill="#6132CB" transform="translate(39,116)"/>
<path d="M0 0 C0.66 0.99 1.32 1.98 2 3 C5.56769552 3.73606499 5.56769552 3.73606499 9 4 C9 4.33 9 4.66 9 5 C7.865625 5.12375 6.73125 5.2475 5.5625 5.375 C3.7990625 5.684375 3.7990625 5.684375 2 6 C1.67 6.66 1.34 7.32 1 8 C-0.32 7.34 -1.64 6.68 -3 6 C-3 5.34 -3 4.68 -3 4 C-2.01 4 -1.02 4 0 4 C0 2.68 0 1.36 0 0 Z " fill="#D5DBF2" transform="translate(131,117)"/>
<path d="M0 0 C1.32 0 2.64 0 4 0 C5.125 4.75 5.125 4.75 4 7 C2.68 7 1.36 7 0 7 C0 6.34 0 5.68 0 5 C0.66 5 1.32 5 2 5 C2 4.34 2 3.68 2 3 C1.34 3 0.68 3 0 3 C0 2.01 0 1.02 0 0 Z " fill="#543ED4" transform="translate(68,103)"/>
<path d="M0 0 C0.99 0 1.98 0 3 0 C3 0.66 3 1.32 3 2 C4.32 1.67 5.64 1.34 7 1 C5.9375 2.5 5.9375 2.5 4 4 C0.3125 4.1875 0.3125 4.1875 -3 4 C-3.33 3.34 -3.66 2.68 -4 2 C-2.68 2 -1.36 2 0 2 C0 1.34 0 0.68 0 0 Z " fill="#FCFAFA" transform="translate(72,98)"/>
<path d="M0 0 C0.928125 0.165 1.85625 0.33 2.8125 0.5 C5.95621353 1.07748388 5.95621353 1.07748388 9 1 C8.67 2.98 8.34 4.96 8 7 C5.18060883 4.79020692 2.46941056 2.59937954 0 0 Z " fill="#5B54D3" transform="translate(75,96)"/>
<path d="M0 0 C0.99 0 1.98 0 3 0 C3 1.98 3 3.96 3 6 C1.33333333 6 -0.33333333 6 -2 6 C-1.49396008 3.83125748 -1.00016187 2.00032373 0 0 Z " fill="#FBFAFB" transform="translate(61,112)"/>
<path d="M0 0 C2.31 0 4.62 0 7 0 C6.67 1.32 6.34 2.64 6 4 C4.68 4.33 3.36 4.66 2 5 C1.34 3.35 0.68 1.7 0 0 Z " fill="#2B71F2" transform="translate(180,96)"/>
<path d="M0 0 C1.98 0 3.96 0 6 0 C5.67 1.32 5.34 2.64 5 4 C4.67 3.34 4.34 2.68 4 2 C3.01 2 2.02 2 1 2 C1 2.66 1 3.32 1 4 C-0.98 4 -2.96 4 -5 4 C-4.360625 3.71125 -3.72125 3.4225 -3.0625 3.125 C-0.84793921 2.17176549 -0.84793921 2.17176549 0 0 Z " fill="#CBDCEF" transform="translate(164,118)"/>
<path d="M0 0 C1.98 0 3.96 0 6 0 C6.33 0.99 6.66 1.98 7 3 C4.36 3 1.72 3 -1 3 C-0.67 2.01 -0.34 1.02 0 0 Z " fill="#435CCA" transform="translate(133,110)"/>
<path d="M0 0 C1.65 0 3.3 0 5 0 C4.8125 1.8125 4.8125 1.8125 4 4 C1.4375 5.75 1.4375 5.75 -1 7 C-1.33 6.01 -1.66 5.02 -2 4 C-0.68 4 0.64 4 2 4 C2 3.34 2 2.68 2 2 C1.34 1.34 0.68 0.68 0 0 Z " fill="#DEECF4" transform="translate(141,119)"/>
<path d="M0 0 C0.33 0 0.66 0 1 0 C1 1.65 1 3.3 1 5 C0.34 5 -0.32 5 -1 5 C-0.67 6.32 -0.34 7.64 0 9 C-0.99 9 -1.98 9 -3 9 C-2.25 2.25 -2.25 2.25 0 0 Z " fill="#523AD3" transform="translate(85,118)"/>
<path d="M0 0 C0.99 0 1.98 0 3 0 C3.1875 2.875 3.1875 2.875 3 6 C2.01 6.66 1.02 7.32 0 8 C0 5.36 0 2.72 0 0 Z " fill="#FAFBF2" transform="translate(175,99)"/>
<path d="M0 0 C3.125 0.1875 3.125 0.1875 6 1 C6.33 1.66 6.66 2.32 7 3 C3.7 3 0.4 3 -3 3 C-2.01 2.01 -1.02 1.02 0 0 Z " fill="#5330C1" transform="translate(63,125)"/>
<path d="M0 0 C1.32 0 2.64 0 4 0 C4 2.31 4 4.62 4 7 C1.69 7 -0.62 7 -3 7 C-3 6.67 -3 6.34 -3 6 C-1.02 6 0.96 6 3 6 C1.515 3.03 1.515 3.03 0 0 Z " fill="#5580D5" transform="translate(167,107)"/>
<path d="M0 0 C-0.33 1.32 -0.66 2.64 -1 4 C-1.66 3.67 -2.32 3.34 -3 3 C-4.37342831 2.9310528 -5.75002102 2.91532292 -7.125 2.9375 C-9.043125 2.9684375 -9.043125 2.9684375 -11 3 C-11 2.34 -11 1.68 -11 1 C-9.54182203 0.83197949 -8.0834516 0.66562857 -6.625 0.5 C-5.81289062 0.4071875 -5.00078125 0.314375 -4.1640625 0.21875 C-2 0 -2 0 0 0 Z " fill="#386EDE" transform="translate(191,103)"/>
<path d="M0 0 C0.99 0.33 1.98 0.66 3 1 C3 2.32 3 3.64 3 5 C1.35 5.33 -0.3 5.66 -2 6 C-2.33 5.34 -2.66 4.68 -3 4 C-2.34 3.67 -1.68 3.34 -1 3 C-0.67 2.01 -0.34 1.02 0 0 Z " fill="#2665E1" transform="translate(194,123)"/>
<path d="M0 0 C1.98 0 3.96 0 6 0 C6 0.99 6 1.98 6 3 C4.02 3 2.04 3 0 3 C0 2.01 0 1.02 0 0 Z " fill="#3852CE" transform="translate(134,118)"/>
<path d="M0 0 C0.99 0 1.98 0 3 0 C3.33 0.99 3.66 1.98 4 3 C2.02 3.99 2.02 3.99 0 5 C-0.66 4.34 -1.32 3.68 -2 3 C-1.34 3 -0.68 3 0 3 C0 2.01 0 1.02 0 0 Z " fill="#EAF0F5" transform="translate(165,120)"/>
<path d="M0 0 C0.66 0.33 1.32 0.66 2 1 C2 1.66 2 2.32 2 3 C3.98 3 5.96 3 8 3 C8 3.33 8 3.66 8 4 C4.7 4 1.4 4 -2 4 C-2 3.34 -2 2.68 -2 2 C-1.34 2 -0.68 2 0 2 C0 1.34 0 0.68 0 0 Z " fill="#305FD0" transform="translate(162,111)"/>
<path d="M0 0 C2.31 0.33 4.62 0.66 7 1 C7 1.99 7 2.98 7 4 C2.25 3.125 2.25 3.125 0 2 C0 1.34 0 0.68 0 0 Z " fill="#5045C8" transform="translate(77,107)"/>
<path d="M0 0 C0.99 0 1.98 0 3 0 C3 1.98 3 3.96 3 6 C2.01 6 1.02 6 0 6 C0 4.02 0 2.04 0 0 Z " fill="#2E6DF4" transform="translate(168,98)"/>
</svg>
